<?xml version="1.0" encoding="utf-8"?>
<!-- Generator: Adobe Illustrator 26.0.3, SVG Export Plug-In . SVG Version: 6.00 Build 0)  -->
<svg version="1.1" id="레이어_1" xmlns="http://www.w3.org/2000/svg" xmlns:xlink="http://www.w3.org/1999/xlink" x="0px"
	 y="0px" viewBox="0 0 200 70" style="enable-background:new 0 0 200 70;" xml:space="preserve">
<style type="text/css">
	.st0{fill:#ABF9FF;}
	.st1{fill:#1B7FDD;}
	.st2{fill:#FFBB02;}
	.st3{fill:#FFFFFF;}
	.st4{fill:#1B57DD;}
	.st5{fill:#2332A3;}
	.st6{fill:url(#SVGID_1_);}
	.st7{fill:url(#SVGID_00000039820691596175161420000002797758901467191713_);}
</style>
<symbol  id="새_심볼_2" viewBox="-22.4 -42.7 44.8 85.4">
	<polygon class="st0" points="11.4,35.4 15.4,5.4 22.4,21.4 	"/>
	<polygon class="st1" points="-7,-28.7 1.4,-42.7 2.8,-26.6 	"/>
	<polygon class="st2" points="-18.9,42.7 -14.6,37.2 -22.4,26 	"/>
</symbol>
<g>
	<path class="st3" d="M182.6,48.2H17.6c-8.6,0-15.7-7-15.7-15.7l0,0c0-8.6,7.1-15.7,15.7-15.7h165.1c8.6,0,15.7,7.1,15.7,15.7l0,0
		C198.3,41.1,191.2,48.2,182.6,48.2z"/>
</g>
<g>
	<g>
		<path class="st4" d="M36.2,29.2l0.2-0.6c-0.8,0-1.3-0.1-1.6-0.2c-0.3-0.1-0.5-0.4-0.5-0.7c0-0.3,0.1-0.5,0.3-0.8
			c0.2-0.3,0.5-0.6,0.8-0.9s0.5-0.5,0.8-0.6c0.2-0.1,0.5-0.1,0.8-0.1c0.8,0,1.8,0,2.9,0.1c0.2,0,0.5,0,0.6,0c0.2,0,0.3,0,0.5,0
			c0.5,0,0.7,0,0.9,0s0.3,0.1,0.4,0.1c0.1,0,0.2,0.1,0.3,0.2c0.2,0.2,0.3,0.5,0.3,0.8c0,0.7-0.2,1.2-0.7,1.4
			c-0.3,0.1-0.5,0.2-0.8,0.2c-0.2,0-0.7,0.1-1.3,0.1L39,32.1c0.5,0,1,0,1.3,0c0.2,0,0.5,0,0.9,0c0.5,0,0.8,0,1.1,0.2
			c0.2,0.1,0.3,0.3,0.3,0.6c0,0.2-0.1,0.5-0.3,0.9c-0.2,0.4-0.4,0.7-0.7,0.9c-0.1,0.1-0.3,0.2-0.5,0.2s-0.5,0.1-1,0.1h-0.1h-0.3
			c-0.5,0-1,0-1.6,0.1c-0.3,1-0.6,1.8-0.8,2.4s-0.6,1-1,1.4c-0.3,0.3-0.5,0.5-0.8,0.6s-0.6,0.2-0.8,0.2c-0.4,0-0.8-0.1-1.1-0.4
			c-0.3-0.2-0.5-0.5-0.5-0.8c0-0.4,0.3-1.6,1-3.6C34.9,32.7,35.5,30.9,36.2,29.2z"/>
		<path class="st4" d="M46.1,36.2l0,0.2c0,0.1,0,0.3,0,0.5c0,0.3-0.1,0.6-0.1,0.8c0,0.2-0.1,0.4-0.2,0.5c-0.1,0.1-0.2,0.3-0.4,0.5
			c-0.5,0.5-1,0.7-1.5,0.7c-0.4,0-0.7-0.2-0.9-0.5c-0.2-0.3-0.3-0.8-0.3-1.5c0-0.5,0.1-1.2,0.2-2c0.1-0.8,0.3-1.5,0.4-2.1l0.1-0.3
			c0,0,0-0.1,0.1-0.3c0.2-0.9,0.5-1.6,0.7-2.1c0.2-0.5,0.5-0.8,0.8-1.1c0.3-0.2,0.6-0.3,0.9-0.3c0.5,0,0.8,0.3,0.9,0.9
			c0.1-0.1,0.2-0.2,0.3-0.3c0.2-0.2,0.3-0.4,0.5-0.5s0.2-0.1,0.4-0.1c0.6,0,0.9,0.6,0.9,1.7c0,0.6-0.1,1.2-0.2,1.8
			c-0.1,0.6-0.3,1.1-0.5,1.5c-0.2,0.4-0.4,0.6-0.6,0.6c-0.2,0-0.3-0.4-0.3-1.3c0-0.5,0-0.8-0.1-1.1c0-0.3-0.1-0.5-0.2-0.6
			c-0.2,0.4-0.3,1.3-0.4,2.6C46.2,35.5,46.1,36,46.1,36.2z"/>
		<path class="st4" d="M53,36.5c0.1,0.4,0.3,0.6,0.8,0.6c0.5,0,1.2-0.3,2-0.9c0.5-0.3,0.8-0.5,1-0.5c0.2,0,0.4,0,0.6,0.2
			c0.2,0.1,0.3,0.2,0.3,0.3s-0.1,0.3-0.3,0.5c-0.4,0.4-0.8,0.7-1.2,1.1c-0.5,0.3-0.9,0.6-1.4,0.9c-0.4,0.2-0.9,0.4-1.3,0.5
			c-0.4,0.1-0.8,0.2-1.2,0.2c-0.9,0-1.5-0.2-2-0.7c-0.5-0.5-0.8-1.1-0.8-2c0-0.6,0.1-1.3,0.4-2.1s0.6-1.5,1.1-2.2
			c0.5-0.8,1.2-1.5,2-2c1-0.6,1.9-1,2.8-1c0.6,0,1.2,0.2,1.5,0.6c0.4,0.4,0.5,1,0.5,1.7c0,0.5-0.2,1.1-0.4,1.7
			C57,34,56.6,34.6,56,35.1c-0.5,0.5-0.9,0.8-1.4,1.1c-0.4,0.2-0.8,0.4-1.2,0.4C53.3,36.6,53.2,36.5,53,36.5z M53,36.1
			c0.3-0.2,0.5-0.4,0.7-0.6c0.4-0.4,0.6-1,0.8-1.5c0.2-0.4,0.3-0.8,0.4-1.3s0.1-0.9,0.1-1.3c0-0.4-0.1-0.6-0.2-0.6
			c-0.2,0-0.5,0.5-1,1.4c-0.3,0.6-0.5,1.2-0.7,1.7c-0.2,0.6-0.2,1.1-0.2,1.5C52.9,35.7,52.9,35.9,53,36.1z"/>
		<path class="st4" d="M62,36.5c0.1,0.4,0.3,0.6,0.8,0.6c0.5,0,1.2-0.3,2-0.9c0.5-0.3,0.8-0.5,1-0.5c0.2,0,0.4,0,0.6,0.2
			c0.2,0.1,0.3,0.2,0.3,0.3s-0.1,0.3-0.3,0.5c-0.4,0.4-0.8,0.7-1.2,1.1c-0.5,0.3-0.9,0.6-1.4,0.9c-0.4,0.2-0.9,0.4-1.3,0.5
			c-0.4,0.1-0.8,0.2-1.2,0.2c-0.9,0-1.5-0.2-2-0.7c-0.5-0.5-0.8-1.1-0.8-2c0-0.6,0.1-1.3,0.4-2.1c0.3-0.8,0.6-1.5,1.1-2.2
			c0.5-0.8,1.2-1.5,2-2c1-0.6,1.9-1,2.8-1c0.6,0,1.2,0.2,1.5,0.6c0.4,0.4,0.6,1,0.6,1.7c0,0.5-0.2,1.1-0.4,1.7s-0.7,1.2-1.3,1.7
			c-0.5,0.5-0.9,0.8-1.4,1.1c-0.4,0.2-0.8,0.4-1.2,0.4C62.3,36.6,62.1,36.5,62,36.5z M61.9,36.1c0.3-0.2,0.5-0.4,0.7-0.6
			c0.4-0.4,0.6-1,0.8-1.5c0.2-0.4,0.3-0.8,0.4-1.3s0.1-0.9,0.1-1.3c0-0.4-0.1-0.6-0.2-0.6c-0.2,0-0.5,0.5-1,1.4
			c-0.3,0.6-0.5,1.2-0.7,1.7c-0.2,0.6-0.2,1.1-0.2,1.5C61.9,35.7,61.9,35.9,61.9,36.1z"/>
	</g>
</g>
<g>
	<g>
		<path class="st4" d="M146,34.3l1.2-1.3c0.3-0.3,0.6-0.6,0.8-0.7s0.4-0.3,0.7-0.5c0.5-0.3,0.9-0.5,1.3-0.5c0.3,0,0.4,0.1,0.4,0.3
			c0,0.2,0,0.3-0.1,0.5c-0.1,0.2-0.2,0.3-0.3,0.5c-0.2,0.2-0.7,0.6-1.4,1c-0.5,0.3-0.9,0.6-1.2,0.8c0.1,0.3,0.1,0.6,0.2,0.8
			c0.1,0.2,0.1,0.5,0.2,0.6c0.1,0.2,0.2,0.4,0.3,0.7c0.1,0.3,0.3,0.5,0.5,0.8c0.4,0.6,0.9,1,1.3,1.2c0.1,0.1,0.2,0.1,0.2,0.2
			c0,0.1-0.1,0.2-0.2,0.3c-0.2,0.2-0.4,0.3-0.7,0.4s-0.5,0.2-0.8,0.2c-0.5,0-0.9-0.1-1.3-0.4c-0.4-0.3-0.7-0.6-0.9-1.1
			c-0.2-0.5-0.4-1.2-0.5-1.9c0-0.1,0-0.3,0-0.4h0c-0.2,0.2-0.3,0.4-0.4,0.6c-0.1,0.2-0.2,0.4-0.3,0.8c-0.2,0.5-0.4,0.9-0.5,1.1
			s-0.3,0.5-0.5,0.6c-0.2,0.2-0.4,0.3-0.6,0.4s-0.4,0.2-0.6,0.2c-0.1,0-0.2,0-0.3-0.1c-0.1-0.1-0.1-0.2-0.1-0.3c0-0.1,0-0.1,0-0.2
			c0.2-0.8,0.4-1.5,0.6-2.3c0.2-0.8,0.4-1.5,0.7-2.2s0.4-1.3,0.6-1.8c0.2-0.5,0.4-0.8,0.5-0.9c0.1-0.1,0.3-0.3,0.6-0.4
			s0.5-0.1,0.8-0.1c0.2,0,0.4,0,0.5,0.1c0.1,0.1,0.2,0.2,0.2,0.3c0,0.2-0.2,0.9-0.6,2.1c0,0.1-0.1,0.2-0.1,0.4
			c-0.1,0.2-0.1,0.3-0.1,0.4l0,0L146,34.3z"/>
		<path class="st4" d="M154,32.9c-0.3,0.3-0.5,0.5-0.6,0.7c-0.1,0.2-0.3,0.4-0.4,0.8c-0.1,0.2-0.2,0.5-0.2,0.8
			c-0.1,0.2-0.1,0.5-0.1,0.9c0,0.5,0.1,1,0.1,1.3c0.1,0.3,0.2,0.6,0.4,0.8c0.2,0.2,0.4,0.3,0.7,0.3c0.2,0,0.4-0.1,0.7-0.2
			c0.2-0.2,0.4-0.4,0.6-0.7s0.3-0.6,0.5-0.9c0.1-0.3,0.2-0.6,0.2-1c0-0.5-0.2-1.1-0.6-1.7c-0.1-0.2-0.2-0.4-0.2-0.5
			c0-0.2,0.1-0.3,0.3-0.5c0.2-0.2,0.4-0.4,0.7-0.5s0.5-0.2,0.6-0.2c0.1,0,0.2,0,0.3,0.1s0.2,0.1,0.2,0.2c0.1,0.1,0.2,0.4,0.3,0.7
			c0.1,0.3,0.1,0.7,0.1,1.1c0,0.9-0.2,1.8-0.6,2.6c-0.4,0.8-0.9,1.4-1.6,1.9s-1.4,0.7-2.1,0.7c-0.4,0-0.9-0.1-1.3-0.2
			c-0.4-0.2-0.8-0.4-1.1-0.7c-0.5-0.5-0.7-1.1-0.7-1.8c0-0.4,0.1-0.9,0.2-1.4s0.4-1,0.7-1.4c0.3-0.5,0.6-0.9,1-1.3
			c0.4-0.4,0.8-0.7,1.2-0.9c0.4-0.2,0.8-0.4,1.2-0.5c0.4-0.1,0.8-0.2,1.1-0.2c0.5,0,0.7,0.1,0.7,0.2c0,0.1-0.1,0.1-0.1,0.3
			c-0.2,0.2-0.3,0.3-0.5,0.3c-0.1,0.1-0.3,0.1-0.6,0.2c-0.3,0.1-0.6,0.2-0.7,0.3C154.4,32.6,154.2,32.7,154,32.9z"/>
		<path class="st4" d="M161.8,34.3l1.2-1.3c0.3-0.3,0.6-0.6,0.8-0.7c0.2-0.2,0.4-0.3,0.7-0.5c0.5-0.3,0.9-0.5,1.3-0.5
			c0.3,0,0.4,0.1,0.4,0.3c0,0.2,0,0.3-0.1,0.5c-0.1,0.2-0.2,0.3-0.3,0.5c-0.2,0.2-0.7,0.6-1.4,1c-0.5,0.3-0.9,0.6-1.2,0.8
			c0.1,0.3,0.1,0.6,0.2,0.8c0.1,0.2,0.1,0.5,0.2,0.6s0.2,0.4,0.3,0.7c0.1,0.3,0.3,0.5,0.5,0.8c0.4,0.6,0.9,1,1.3,1.2
			c0.1,0.1,0.2,0.1,0.2,0.2c0,0.1-0.1,0.2-0.2,0.3c-0.2,0.2-0.4,0.3-0.7,0.4s-0.5,0.2-0.8,0.2c-0.5,0-0.9-0.1-1.3-0.4
			c-0.4-0.3-0.7-0.6-0.9-1.1c-0.2-0.5-0.4-1.2-0.5-1.9c0-0.1,0-0.3,0-0.4h0c-0.2,0.2-0.3,0.4-0.4,0.6c-0.1,0.2-0.2,0.4-0.3,0.8
			c-0.2,0.5-0.4,0.9-0.5,1.1s-0.3,0.5-0.5,0.6c-0.2,0.2-0.4,0.3-0.6,0.4s-0.4,0.2-0.6,0.2c-0.1,0-0.2,0-0.3-0.1
			c-0.1-0.1-0.1-0.2-0.1-0.3c0-0.1,0-0.1,0-0.2c0.2-0.8,0.4-1.5,0.6-2.3c0.2-0.8,0.4-1.5,0.7-2.2s0.4-1.3,0.6-1.8
			c0.2-0.5,0.4-0.8,0.5-0.9c0.1-0.1,0.3-0.3,0.6-0.4s0.5-0.1,0.8-0.1c0.2,0,0.4,0,0.5,0.1c0.1,0.1,0.2,0.2,0.2,0.3
			c0,0.2-0.2,0.9-0.6,2.1c0,0.1-0.1,0.2-0.1,0.4c-0.1,0.2-0.1,0.3-0.1,0.4l0,0L161.8,34.3z"/>
	</g>
</g>
<g>
	<path class="st5" d="M131.8,18.2c-3.1-3.1-7.2-4.7-12.3-4.7c-6.3,0-11.4,2.2-15.3,6.5c-3,3.3-4.8,7.3-5.4,12
		c-0.4-0.4-0.8-0.8-1.2-1.2c-2.2-1.8-5.5-2.8-9.8-2.8h-3.9l2.4-6.7h14.3l3.4-7.9h-25l-6.8,19.4h7.4c3.3,0,5.9,0.7,7.6,2.1
		c1.6,1.2,2.3,2.8,2.3,4.7c0,2.1-0.7,4-2.2,5.8c-1.6,1.9-3.4,3-5.6,3.2c0.3-0.8,0.5-1.6,0.5-2.4c0-1.8-0.7-3.4-2.2-4.7
		c-1.4-1.3-3.2-2-5.2-2c-2,0-3.8,0.7-5.2,2c-1.4,1.3-2.2,2.9-2.2,4.7c0,1.7,0.6,3.2,1.9,4.5c1.3,1.3,2.9,2,4.8,2.3
		c1.7,0.3,3.4,0.4,5,0.4c7.8,0,13.8-2.2,18.2-6.7c1.1-1.1,2-2.3,2.6-3.5c0.8,1.9,1.9,3.6,3.3,5c3.1,3.1,7.2,4.7,12.3,4.7
		c6.3,0,11.5-2.2,15.4-6.5c3.7-4.2,5.6-9.5,5.6-15.9C136.4,25.5,134.9,21.4,131.8,18.2z M122.5,39.5c-1.8,5.4-4.3,8.1-7.5,8.1
		c-3.3,0-4.9-2.7-4.9-8.2c0-4,0.7-8,2.1-12.1c1.8-5.4,4.3-8.1,7.5-8.1c3.2,0,4.8,2.8,4.8,8.2C124.5,31.5,123.9,35.5,122.5,39.5z"/>
</g>
<g>
	
		<linearGradient id="SVGID_1_" gradientUnits="userSpaceOnUse" x1="66.3849" y1="49.4221" x2="135.5349" y2="49.4221" gradientTransform="matrix(1 0 0 -1 0 81.174)">
		<stop  offset="0" style="stop-color:#0040C4"/>
		<stop  offset="1" style="stop-color:#0074CD"/>
	</linearGradient>
	<path class="st6" d="M130.9,16.5c-3.1-3.1-7.2-4.7-12.3-4.7c-6.3,0-11.4,2.2-15.3,6.5c-3,3.3-4.8,7.3-5.4,12
		c-0.4-0.4-0.8-0.8-1.2-1.2c-2.2-1.8-5.5-2.8-9.8-2.8h-3.9l2.4-6.7h14.3l3.4-7.9H78l-6.8,19.4h7.4c3.3,0,5.9,0.7,7.6,2.1
		c1.6,1.2,2.3,2.8,2.3,4.7c0,2.1-0.7,4-2.2,5.8c-1.6,1.9-3.4,3-5.6,3.2c0.3-0.8,0.5-1.6,0.5-2.4c0-1.8-0.7-3.4-2.2-4.7
		c-1.4-1.3-3.2-2-5.2-2c-2,0-3.8,0.7-5.2,2c-1.4,1.3-2.2,2.9-2.2,4.7c0,1.7,0.6,3.2,1.9,4.5c1.3,1.3,2.9,2,4.8,2.3
		c1.7,0.3,3.4,0.4,5,0.4c7.8,0,13.8-2.2,18.2-6.7c1.1-1.1,2-2.3,2.6-3.5c0.8,1.9,1.9,3.6,3.3,5c3.1,3.1,7.2,4.7,12.3,4.7
		c6.3,0,11.5-2.2,15.4-6.5c3.7-4.2,5.6-9.5,5.6-15.9C135.5,23.8,134,19.7,130.9,16.5z M121.6,37.8c-1.8,5.4-4.3,8.1-7.5,8.1
		c-3.3,0-4.9-2.7-4.9-8.2c0-4,0.7-8,2.1-12.1c1.8-5.4,4.3-8.1,7.5-8.1c3.2,0,4.8,2.8,4.8,8.2C123.6,29.8,123,33.8,121.6,37.8z"/>
</g>
<g>
	
		<image style="overflow:visible;opacity:0.75;enable-background:new    ;" width="84" height="55" xlink:href="A9E8955D.png"  transform="matrix(1 0 0 1 62.1079 5.9846)">
	</image>
	<g>
		<g>
			
				<linearGradient id="SVGID_00000034057249899719710440000008699836734787458990_" gradientUnits="userSpaceOnUse" x1="64.7711" y1="50.3988" x2="135.9215" y2="50.3988" gradientTransform="matrix(1 0 0 -1 0 81.174)">
				<stop  offset="1.400000e-02" style="stop-color:#FFFFFF"/>
				<stop  offset="0.3156" style="stop-color:#5FF9FB"/>
				<stop  offset="0.595" style="stop-color:#0097FF"/>
				<stop  offset="0.8212" style="stop-color:#00FFB3"/>
				<stop  offset="0.986" style="stop-color:#FFFFFF"/>
			</linearGradient>
			<path style="fill:url(#SVGID_00000034057249899719710440000008699836734787458990_);" d="M77.5,51.8c-1.7,0-3.5-0.1-5.2-0.4
				c-2.1-0.3-3.9-1.1-5.4-2.6c-1.5-1.5-2.2-3.2-2.2-5.2c0-2.1,0.8-4,2.5-5.4c1.6-1.5,3.6-2.2,5.9-2.2c2.3,0,4.3,0.7,5.9,2.2
				c1.7,1.5,2.5,3.3,2.5,5.5c0,0.4,0,0.7-0.1,1c1.3-0.5,2.5-1.3,3.5-2.5c1.3-1.6,2-3.3,2-5.2c0-1.6-0.6-2.9-1.9-3.9
				c-1.6-1.2-3.9-1.9-7-1.9h-8.8l7.5-21.5h27.2l-4.1,9.7c0.6-1,1.3-1.9,2.1-2.7c4.1-4.6,9.5-6.9,16.1-6.9c5.4,0,9.8,1.7,13,5
				c3.3,3.3,4.9,7.7,4.9,13.1c0,6.6-2,12.2-5.9,16.6c-4.1,4.5-9.5,6.8-16.1,6.8c-5.4,0-9.7-1.7-13-5c-1.1-1.1-2-2.3-2.7-3.6
				c-0.5,0.7-1.1,1.4-1.8,2.1C91.9,49.4,85.6,51.8,77.5,51.8z M73.1,38c-1.8,0-3.3,0.6-4.5,1.7c-1.2,1.1-1.8,2.4-1.8,4
				c0,1.5,0.5,2.7,1.6,3.8c1.1,1.1,2.5,1.8,4.2,2c1.6,0.3,3.3,0.4,4.9,0.4c7.5,0,13.3-2.2,17.5-6.4c1-1,1.8-2.1,2.4-3.3l1-1.9l0.8,2
				c0.7,1.8,1.8,3.4,3.1,4.7c2.9,2.9,6.8,4.4,11.6,4.4c6,0,11-2.1,14.6-6.1c3.6-4,5.4-9.1,5.4-15.2c0-4.8-1.4-8.8-4.3-11.7l0,0
				c-2.9-2.9-6.8-4.4-11.6-4.4c-6.1,0-10.8,2-14.6,6.2c-2.8,3.1-4.5,7-5.1,11.4L98,31.6L96.5,30c-0.4-0.4-0.8-0.8-1.1-1.1
				c-2-1.7-5.1-2.5-9.2-2.5h-5.4l3.2-8.7h14.3l2.5-5.9H78.1L72,29.2h6c3.6,0,6.3,0.8,8.3,2.3c1.8,1.4,2.7,3.2,2.7,5.5
				c0,2.3-0.8,4.5-2.4,6.5c-1.7,2.1-3.8,3.3-6.3,3.6l-1.7,0.2l0.6-1.6c0.3-0.7,0.4-1.4,0.4-2c0-1.6-0.6-2.8-1.8-4
				C76.4,38.5,74.9,38,73.1,38z M83.7,24.4h2.5c4.5,0,8,1,10.4,2.9c0.6-2.8,1.6-5.3,3-7.6H85.4L83.7,24.4z M113.5,45.9
				c-2.7,0-5.9-1.6-5.9-9.2c0-4.1,0.7-8.3,2.1-12.4c2-5.8,4.8-8.8,8.4-8.8c2.7,0,5.8,1.6,5.8,9.2c0,4.2-0.7,8.3-2.1,12.4l0,0
				C120,43,117.2,45.9,113.5,45.9z M118.2,17.5c-2.7,0-4.9,2.5-6.5,7.4c-1.3,3.9-2,7.9-2,11.8c0,7.2,2.9,7.2,3.9,7.2
				c2.7,0,4.9-2.5,6.5-7.4c1.3-3.9,2-7.8,2-11.8C122,17.5,119.2,17.5,118.2,17.5z"/>
		</g>
	</g>
</g>
<g>
	<g>
		<defs>
			<rect id="SVGID_00000165199792761527391510000016093213308403347607_" x="43.4" y="27.1" width="8.7" height="16.5"/>
		</defs>
		<clipPath id="SVGID_00000163789428505421568220000006831423244689145230_">
			<use xlink:href="#SVGID_00000165199792761527391510000016093213308403347607_"  style="overflow:visible;"/>
		</clipPath>
		<g style="clip-path:url(#SVGID_00000163789428505421568220000006831423244689145230_);">
			
				<use xlink:href="#새_심볼_2"  width="44.8" height="85.4" x="-22.4" y="-42.7" transform="matrix(0.1936 0 0 -0.1936 47.7784 35.3855)" style="overflow:visible;"/>
		</g>
	</g>
	<g>
		<defs>
			<rect id="SVGID_00000067935827525827118240000003467072344556986506_" x="43.4" y="20.9" width="8.7" height="16.5"/>
		</defs>
		<clipPath id="SVGID_00000063614189974175716660000002351157624854089107_">
			<use xlink:href="#SVGID_00000067935827525827118240000003467072344556986506_"  style="overflow:visible;"/>
		</clipPath>
		
			<g transform="matrix(1 0 0 1 0 1.907349e-06)" style="clip-path:url(#SVGID_00000063614189974175716660000002351157624854089107_);">
			
				<use xlink:href="#새_심볼_2"  width="44.8" height="85.4" x="-22.4" y="-42.7" transform="matrix(0.1936 0 0 -0.1936 47.7587 29.1393)" style="overflow:visible;"/>
		</g>
	</g>
	<g>
		<defs>
			<rect id="SVGID_00000167389830698345177740000006740823948821003708_" x="48.3" y="24.1" width="8.7" height="16.5"/>
		</defs>
		<clipPath id="SVGID_00000139271292481486490100000018114052098254365095_">
			<use xlink:href="#SVGID_00000167389830698345177740000006740823948821003708_"  style="overflow:visible;"/>
		</clipPath>
		
			<g transform="matrix(1 0 0 1 -3.814697e-06 0)" style="clip-path:url(#SVGID_00000139271292481486490100000018114052098254365095_);">
			
				<use xlink:href="#새_심볼_2"  width="44.8" height="85.4" x="-22.4" y="-42.7" transform="matrix(0.1936 0 0 -0.1936 52.6638 32.4011)" style="overflow:visible;"/>
		</g>
	</g>
	<g>
		<defs>
			
				<rect id="SVGID_00000119810942393256872500000016879742262616683149_" x="55.4" y="48.9" transform="matrix(0.9999 -1.365807e-02 1.365807e-02 0.9999 -0.7746 0.821)" width="8.7" height="16.5"/>
		</defs>
		<clipPath id="SVGID_00000140012424327630951940000016378300251044229522_">
			<use xlink:href="#SVGID_00000119810942393256872500000016879742262616683149_"  style="overflow:visible;"/>
		</clipPath>
		
			<g transform="matrix(1 9.313226e-10 0 1 0 0)" style="clip-path:url(#SVGID_00000140012424327630951940000016378300251044229522_);">
			
				<use xlink:href="#새_심볼_2"  width="44.8" height="85.4" x="-22.4" y="-42.7" transform="matrix(0.1936 -2.644450e-03 -2.644449e-03 -0.1936 59.7182 57.1202)" style="overflow:visible;"/>
		</g>
	</g>
	<g>
		<defs>
			
				<rect id="SVGID_00000147198511904036127630000015038981639956353454_" x="65.7" y="53" transform="matrix(0.7496 -0.6619 0.6619 0.7496 -19.458 63.2873)" width="16.5" height="8.7"/>
		</defs>
		<clipPath id="SVGID_00000128465907522440651020000014188126813304474524_">
			<use xlink:href="#SVGID_00000147198511904036127630000015038981639956353454_"  style="overflow:visible;"/>
		</clipPath>
		
			<g transform="matrix(1 0 0 1 0 -3.814697e-06)" style="clip-path:url(#SVGID_00000128465907522440651020000014188126813304474524_);">
			
				<use xlink:href="#새_심볼_2"  width="44.8" height="85.4" x="-22.4" y="-42.7" transform="matrix(0.1282 0.1452 0.1452 -0.1282 73.9216 57.363)" style="overflow:visible;"/>
		</g>
	</g>
	<g>
		<defs>
			
				<rect id="SVGID_00000080904557748127555400000015252357526830613654_" x="87" y="53.3" transform="matrix(0.1967 -0.9805 0.9805 0.1967 13.0577 139.0274)" width="8.7" height="16.5"/>
		</defs>
		<clipPath id="SVGID_00000044865769940876958730000003045100804320322742_">
			<use xlink:href="#SVGID_00000080904557748127555400000015252357526830613654_"  style="overflow:visible;"/>
		</clipPath>
		
			<g transform="matrix(1 -1.490116e-08 1.490116e-08 1 0 -3.814697e-06)" style="clip-path:url(#SVGID_00000044865769940876958730000003045100804320322742_);">
			
				<use xlink:href="#새_심볼_2"  width="44.8" height="85.4" x="-22.4" y="-42.7" transform="matrix(-3.810000e-02 0.1899 0.1899 3.810000e-02 91.3743 61.5458)" style="overflow:visible;"/>
		</g>
	</g>
	<g>
		<defs>
			
				<rect id="SVGID_00000160872153260652083010000003989689297184157370_" x="84.3" y="52.3" transform="matrix(0.9766 -0.2149 0.2149 0.9766 -10.0074 21.2189)" width="16.5" height="8.7"/>
		</defs>
		<clipPath id="SVGID_00000046310204961099619320000017580527075534244017_">
			<use xlink:href="#SVGID_00000160872153260652083010000003989689297184157370_"  style="overflow:visible;"/>
		</clipPath>
		
			<g transform="matrix(1 0 0 1 0 3.814697e-06)" style="clip-path:url(#SVGID_00000046310204961099619320000017580527075534244017_);">
			
				<use xlink:href="#새_심볼_2"  width="44.8" height="85.4" x="-22.4" y="-42.7" transform="matrix(4.160000e-02 0.1891 0.1891 -4.160000e-02 92.6039 56.6447)" style="overflow:visible;"/>
		</g>
	</g>
	<g>
		<defs>
			
				<rect id="SVGID_00000134243341084101251710000000735807083621866390_" x="153.6" y="3.6" transform="matrix(0.2112 -0.9774 0.9774 0.2112 112.9679 163.7038)" width="8.7" height="16.5"/>
		</defs>
		<clipPath id="SVGID_00000060006436559945886520000006265129742051349941_">
			<use xlink:href="#SVGID_00000134243341084101251710000000735807083621866390_"  style="overflow:visible;"/>
		</clipPath>
		
			<g transform="matrix(1 0 0 1 0 -3.814697e-06)" style="clip-path:url(#SVGID_00000060006436559945886520000006265129742051349941_);">
			
				<use xlink:href="#새_심볼_2"  width="44.8" height="85.4" x="-22.4" y="-42.7" transform="matrix(4.090000e-02 -0.1893 -0.1893 -4.090000e-02 157.9096 11.8598)" style="overflow:visible;"/>
		</g>
	</g>
	<g>
		<defs>
			
				<rect id="SVGID_00000084516548559235626130000000714332249875593139_" x="146.8" y="28.2" transform="matrix(0.9918 -0.1275 0.1275 0.9918 -3.4113 19.569)" width="8.7" height="16.5"/>
		</defs>
		<clipPath id="SVGID_00000080906667353787197170000010556562813466526109_">
			<use xlink:href="#SVGID_00000084516548559235626130000000714332249875593139_"  style="overflow:visible;"/>
		</clipPath>
		<g style="clip-path:url(#SVGID_00000080906667353787197170000010556562813466526109_);">
			
				<use xlink:href="#새_심볼_2"  width="44.8" height="85.4" x="-22.4" y="-42.7" transform="matrix(0.1921 -2.470000e-02 -2.470000e-02 -0.1921 151.1165 36.4245)" style="overflow:visible;"/>
		</g>
	</g>
	<g>
		<defs>
			
				<rect id="SVGID_00000165225958097388942830000001784900289912957069_" x="138.1" y="45.8" transform="matrix(0.3486 -0.9373 0.9373 0.3486 48.3673 169.9049)" width="16.5" height="8.7"/>
		</defs>
		<clipPath id="SVGID_00000034072759997353405660000010052283496507639958_">
			<use xlink:href="#SVGID_00000165225958097388942830000001784900289912957069_"  style="overflow:visible;"/>
		</clipPath>
		<g transform="matrix(1 0 0 1 0 0)" style="clip-path:url(#SVGID_00000034072759997353405660000010052283496507639958_);">
			
				<use xlink:href="#새_심볼_2"  width="44.8" height="85.4" x="-22.4" y="-42.7" transform="matrix(0.1815 6.750000e-02 6.750000e-02 -0.1815 146.4156 50.1569)" style="overflow:visible;"/>
		</g>
	</g>
	<g>
		<defs>
			<rect id="SVGID_00000032624041359083761420000004077454209671681950_" x="61.2" y="2.6" width="8.7" height="16.5"/>
		</defs>
		<clipPath id="SVGID_00000020380043356993357290000003466443524621461159_">
			<use xlink:href="#SVGID_00000032624041359083761420000004077454209671681950_"  style="overflow:visible;"/>
		</clipPath>
		<g style="clip-path:url(#SVGID_00000020380043356993357290000003466443524621461159_);">
			
				<use xlink:href="#새_심볼_2"  width="44.8" height="85.4" x="-22.4" y="-42.7" transform="matrix(0.1936 0 0 -0.1936 65.5674 10.8441)" style="overflow:visible;"/>
		</g>
	</g>
	<g>
		<defs>
			
				<rect id="SVGID_00000104676949981947590460000000932589422384728243_" x="77.5" y="22.7" transform="matrix(0.5692 -0.8222 0.8222 0.5692 14.7122 82.2215)" width="16.5" height="8.7"/>
		</defs>
		<clipPath id="SVGID_00000106843301134443972080000013197551763657139646_">
			<use xlink:href="#SVGID_00000104676949981947590460000000932589422384728243_"  style="overflow:visible;"/>
		</clipPath>
		<g style="clip-path:url(#SVGID_00000106843301134443972080000013197551763657139646_);">
			
				<use xlink:href="#새_심볼_2"  width="44.8" height="85.4" x="-22.4" y="-42.7" transform="matrix(0.1592 0.1102 0.1102 -0.1592 85.8133 27.0728)" style="overflow:visible;"/>
		</g>
	</g>
	<g>
		<defs>
			
				<rect id="SVGID_00000168080151211018111230000003149238275225592715_" x="79.6" y="34.4" transform="matrix(0.1849 -0.9828 0.9828 0.1849 33.5149 117.8998)" width="16.5" height="8.7"/>
		</defs>
		<clipPath id="SVGID_00000049922801569584604850000015006213891063539125_">
			<use xlink:href="#SVGID_00000168080151211018111230000003149238275225592715_"  style="overflow:visible;"/>
		</clipPath>
		<g transform="matrix(1 0 0 1 0 0)" style="clip-path:url(#SVGID_00000049922801569584604850000015006213891063539125_);">
			
				<use xlink:href="#새_심볼_2"  width="44.8" height="85.4" x="-22.4" y="-42.7" transform="matrix(0.1903 3.580000e-02 3.580000e-02 -0.1903 87.8323 38.7462)" style="overflow:visible;"/>
		</g>
	</g>
	<g>
		<defs>
			
				<rect id="SVGID_00000014608703375036313950000009227767710331621248_" x="110.4" y="5.5" transform="matrix(0.1947 -0.9809 0.9809 0.1947 85.937 124.2632)" width="16.5" height="8.7"/>
		</defs>
		<clipPath id="SVGID_00000005948641557393579660000009789760654838412466_">
			<use xlink:href="#SVGID_00000014608703375036313950000009227767710331621248_"  style="overflow:visible;"/>
		</clipPath>
		
			<g transform="matrix(1 -1.490116e-08 1.490116e-08 1 0 -1.907349e-06)" style="clip-path:url(#SVGID_00000005948641557393579660000009789760654838412466_);">
			
				<use xlink:href="#새_심볼_2"  width="44.8" height="85.4" x="-22.4" y="-42.7" transform="matrix(0.1899 3.770000e-02 3.770000e-02 -0.1899 118.6483 9.7944)" style="overflow:visible;"/>
		</g>
	</g>
	<g>
		<defs>
			
				<rect id="SVGID_00000173152343370501761960000016666539388188162478_" x="111.3" y="27" transform="matrix(0.994 -0.1095 0.1095 0.994 -3.1683 12.8666)" width="8.7" height="16.5"/>
		</defs>
		<clipPath id="SVGID_00000108302681419757394110000015771477506903155591_">
			<use xlink:href="#SVGID_00000173152343370501761960000016666539388188162478_"  style="overflow:visible;"/>
		</clipPath>
		<g style="clip-path:url(#SVGID_00000108302681419757394110000015771477506903155591_);">
			
				<use xlink:href="#새_심볼_2"  width="44.8" height="85.4" x="-22.4" y="-42.7" transform="matrix(0.1925 -2.120000e-02 -2.120000e-02 -0.1925 115.6008 35.2887)" style="overflow:visible;"/>
		</g>
	</g>
	<g>
		<defs>
			
				<rect id="SVGID_00000162319995680439414270000013983556830952714430_" x="106.6" y="40.7" transform="matrix(0.7354 -0.6776 0.6776 0.7354 -0.1521 89.7531)" width="16.5" height="8.7"/>
		</defs>
		<clipPath id="SVGID_00000158738423007513248700000002562623297436886937_">
			<use xlink:href="#SVGID_00000162319995680439414270000013983556830952714430_"  style="overflow:visible;"/>
		</clipPath>
		
			<g transform="matrix(1 -2.980232e-08 2.980232e-08 1 0 3.814697e-06)" style="clip-path:url(#SVGID_00000158738423007513248700000002562623297436886937_);">
			
				<use xlink:href="#새_심볼_2"  width="44.8" height="85.4" x="-22.4" y="-42.7" transform="matrix(0.1312 0.1424 0.1424 -0.1312 114.8614 45.072)" style="overflow:visible;"/>
		</g>
	</g>
	<g>
		<defs>
			
				<rect id="SVGID_00000000939682289972589780000000791414835758303150_" x="132.4" y="50.3" transform="matrix(0.283 -0.9591 0.9591 0.283 48.511 174.09)" width="16.5" height="8.7"/>
		</defs>
		<clipPath id="SVGID_00000165208923280511398260000006657930140601893555_">
			<use xlink:href="#SVGID_00000000939682289972589780000000791414835758303150_"  style="overflow:visible;"/>
		</clipPath>
		<g transform="matrix(1 0 0 1 0 0)" style="clip-path:url(#SVGID_00000165208923280511398260000006657930140601893555_);">
			
				<use xlink:href="#새_심볼_2"  width="44.8" height="85.4" x="-22.4" y="-42.7" transform="matrix(0.1857 5.480000e-02 5.480000e-02 -0.1857 140.6994 54.5979)" style="overflow:visible;"/>
		</g>
	</g>
	<g>
		<defs>
			
				<rect id="SVGID_00000067932558084369346890000016249506491277641859_" x="118.8" y="52.5" transform="matrix(0.9979 -6.405041e-02 6.405041e-02 0.9979 -3.6418 8.0127)" width="8.7" height="16.5"/>
		</defs>
		<clipPath id="SVGID_00000160182197920271478700000014129083438433277090_">
			<use xlink:href="#SVGID_00000067932558084369346890000016249506491277641859_"  style="overflow:visible;"/>
		</clipPath>
		
			<g transform="matrix(1 0 0 1 0 -3.814697e-06)" style="clip-path:url(#SVGID_00000160182197920271478700000014129083438433277090_);">
			
				<use xlink:href="#새_심볼_2"  width="44.8" height="85.4" x="-22.4" y="-42.7" transform="matrix(0.1932 -1.240000e-02 -1.240000e-02 -0.1932 120.2425 52.9741)" style="overflow:visible;"/>
		</g>
	</g>
	<g>
		<defs>
			
				<rect id="SVGID_00000126281277386342768550000006764046345997520817_" x="124" y="55.2" transform="matrix(3.425971e-02 -0.9994 0.9994 3.425971e-02 68.1747 189.6931)" width="16.5" height="8.7"/>
		</defs>
		<clipPath id="SVGID_00000007430601866483139100000007697484407002997411_">
			<use xlink:href="#SVGID_00000126281277386342768550000006764046345997520817_"  style="overflow:visible;"/>
		</clipPath>
		
			<g transform="matrix(1 0 3.725290e-09 1 0 0)" style="clip-path:url(#SVGID_00000007430601866483139100000007697484407002997411_);">
			
				<use xlink:href="#새_심볼_2"  width="44.8" height="85.4" x="-22.4" y="-42.7" transform="matrix(0.1935 6.633148e-03 6.633143e-03 -0.1935 134.5555 45.4859)" style="overflow:visible;"/>
		</g>
	</g>
	<g>
		<defs>
			
				<rect id="SVGID_00000025404020743818858970000017193042246923593660_" x="79.5" y="12" transform="matrix(0.9369 -0.3497 0.3497 0.9369 -0.1744 31.7094)" width="16.5" height="8.7"/>
		</defs>
		<clipPath id="SVGID_00000090977458755387262370000012628580276664821692_">
			<use xlink:href="#SVGID_00000025404020743818858970000017193042246923593660_"  style="overflow:visible;"/>
		</clipPath>
		
			<g transform="matrix(1 2.980232e-08 -2.980232e-08 1 0 0)" style="clip-path:url(#SVGID_00000090977458755387262370000012628580276664821692_);">
			
				<use xlink:href="#새_심볼_2"  width="44.8" height="85.4" x="-22.4" y="-42.7" transform="matrix(6.770000e-02 0.1814 0.1814 -6.770000e-02 87.7396 16.3386)" style="overflow:visible;"/>
		</g>
	</g>
	<g>
		<defs>
			
				<rect id="SVGID_00000035523459846939051250000001879029671916756886_" x="75.5" y="16.9" transform="matrix(0.7773 -0.6291 0.6291 0.7773 5.2962 57.3943)" width="16.5" height="8.7"/>
		</defs>
		<clipPath id="SVGID_00000122719005056241407670000011406836199274835642_">
			<use xlink:href="#SVGID_00000035523459846939051250000001879029671916756886_"  style="overflow:visible;"/>
		</clipPath>
		<g style="clip-path:url(#SVGID_00000122719005056241407670000011406836199274835642_);">
			
				<use xlink:href="#새_심볼_2"  width="44.8" height="85.4" x="-22.4" y="-42.7" transform="matrix(0.1218 0.1505 0.1505 -0.1218 83.7245 21.2164)" style="overflow:visible;"/>
		</g>
	</g>
	<g>
		<defs>
			<rect id="SVGID_00000085973569549779971590000014163457792526881978_" x="26.3" y="34.2" width="8.7" height="16.5"/>
		</defs>
		<clipPath id="SVGID_00000109730533565052435200000008876592067029851527_">
			<use xlink:href="#SVGID_00000085973569549779971590000014163457792526881978_"  style="overflow:visible;"/>
		</clipPath>
		
			<g transform="matrix(1 0 0 1 -1.907349e-06 0)" style="clip-path:url(#SVGID_00000109730533565052435200000008876592067029851527_);">
			
				<use xlink:href="#새_심볼_2"  width="44.8" height="85.4" x="-22.4" y="-42.7" transform="matrix(0.1936 0 0 -0.1936 30.626 42.4642)" style="overflow:visible;"/>
		</g>
	</g>
	<g>
		<defs>
			
				<rect id="SVGID_00000124881186209087318190000002852469657570067900_" x="171.9" y="34.5" transform="matrix(0.9918 -0.1275 0.1275 0.9918 -4.0195 22.8265)" width="8.7" height="16.5"/>
		</defs>
		<clipPath id="SVGID_00000041976810759202081240000015154170512169766303_">
			<use xlink:href="#SVGID_00000124881186209087318190000002852469657570067900_"  style="overflow:visible;"/>
		</clipPath>
		
			<g transform="matrix(1 0 0 1 0 -3.814697e-06)" style="clip-path:url(#SVGID_00000041976810759202081240000015154170512169766303_);">
			
				<use xlink:href="#새_심볼_2"  width="44.8" height="85.4" x="-22.4" y="-42.7" transform="matrix(0.1921 -2.470000e-02 -2.470000e-02 -0.1921 176.2515 42.8029)" style="overflow:visible;"/>
		</g>
	</g>
	<g>
		<defs>
			
				<rect id="SVGID_00000065774245803997602790000005393416815052420280_" x="167.3" y="34.1" transform="matrix(0.9918 -0.1275 0.1275 0.9918 -4.0006 22.2369)" width="8.7" height="16.5"/>
		</defs>
		<clipPath id="SVGID_00000163774223817097467790000017107511761325755053_">
			<use xlink:href="#SVGID_00000065774245803997602790000005393416815052420280_"  style="overflow:visible;"/>
		</clipPath>
		<g style="clip-path:url(#SVGID_00000163774223817097467790000017107511761325755053_);">
			
				<use xlink:href="#새_심볼_2"  width="44.8" height="85.4" x="-22.4" y="-42.7" transform="matrix(0.1921 -2.470000e-02 -2.470000e-02 -0.1921 171.6564 42.36)" style="overflow:visible;"/>
		</g>
	</g>
</g>
</svg>
